PathFileType	4	(X/Y/Z)	output.trc
DataRate	CameraRate	NumFrames	NumMarkers	Units	OrigDataRate	OrigDataStartFrame	OrigNumFrames
100	100	15	23	m	100	1	4280
Frame#	Time	C7			T8			EL			EM			US			RS			AA			Fore_Clus_1			Fore_Clus_2			Fore_Clus_3			Fore_Clus_4			Hum_Clus_1			Hum_Clus_2			Hum_Clus_3			Hum_Clus_4			Thor_Clus_1			Thor_Clus_2			Thor_Clus_3			Thor_Clus_4			IJ			PX			GH			Thor_Clus_5		
		X1	Y1	Z1	X2	Y2	Z2	X3	Y3	Z3	X4	Y4	Z4	X5	Y5	Z5	X6	Y6	Z6	X7	Y7	Z7	X8	Y8	Z8	X9	Y9	Z9	X10	Y10	Z10	X11	Y11	Z11	X12	Y12	Z12	X13	Y13	Z13	X14	Y14	Z14	X15	Y15	Z15	X16	Y16	Z16	X17	Y17	Z17	X18	Y18	Z18	X19	Y19	Z19	X20	Y20	Z20	X21	Y21	Z21	X22	Y22	Z22	X23	Y23	Z23
0	0.000000	-0.043567	1.634905	-0.074031	-0.085484	1.402780	-0.150488	-0.166077	1.202474	0.146347	-0.172222	1.197424	0.074641	-0.169336	0.930158	0.168989	-0.120129	0.937645	0.195055	-0.171494	1.541847	0.101020	-0.181432	0.983514	0.203816	-0.175849	0.930302	0.213908	-0.149715	0.934938	0.223463	-0.139941	0.991336	0.219726	-0.116796	1.314552	0.178446	-0.175648	1.326997	0.178568	-0.173195	1.390531	0.179894	-0.115262	1.388481	0.171459	0.114087	1.512004	0.013483	0.089588	1.453667	0.069482	0.082892	1.505249	0.044527	0.134959	1.463136	0.024553	0.037222	1.527174	-0.002086	0.068179	1.335346	0.007543	-0.138189	1.528620	0.094602	0.080702	1.475249	0.064444
1	0.010000	-0.043612	1.634852	-0.074452	-0.085464	1.402653	-0.150720	-0.166151	1.202611	0.146226	-0.172277	1.197531	0.074520	-0.169586	0.930306	0.169003	-0.120383	0.937784	0.195079	-0.171538	1.541909	0.100662	-0.181636	0.983687	0.203788	-0.176151	0.930540	0.213928	-0.149959	0.935102	0.223468	-0.140190	0.991528	0.219717	-0.116858	1.314681	0.178297	-0.175700	1.327167	0.178429	-0.173211	1.390685	0.179712	-0.115275	1.388633	0.171286	0.114123	1.512015	0.013172	0.089598	1.453712	0.069215	0.082967	1.505324	0.044313	0.134921	1.463121	0.024251	0.037194	1.527201	-0.002407	0.068196	1.335389	0.007385	-0.138185	1.528729	0.094348	0.080713	1.475304	0.064186
2	0.020000	-0.043686	1.634775	-0.074916	-0.085459	1.402493	-0.150975	-0.166240	1.202748	0.146078	-0.172340	1.197633	0.074372	-0.169821	0.930462	0.169007	-0.120627	0.937938	0.195102	-0.171605	1.541954	0.100267	-0.181846	0.983882	0.203769	-0.176427	0.930772	0.213947	-0.150190	0.935274	0.223481	-0.140398	0.991708	0.219717	-0.116947	1.314855	0.178110	-0.175744	1.327369	0.178250	-0.173260	1.390882	0.179513	-0.115318	1.388779	0.171079	0.114114	1.512036	0.012868	0.089563	1.453677	0.069014	0.082933	1.505367	0.043990	0.134910	1.463124	0.023954	0.037144	1.527214	-0.002762	0.068202	1.335420	0.007210	-0.138207	1.528836	0.094047	0.080683	1.475336	0.063931
3	0.030000	-0.043775	1.634692	-0.075410	-0.085474	1.402329	-0.151259	-0.166342	1.202885	0.145904	-0.172409	1.197728	0.074198	-0.170043	0.930624	0.169006	-0.120861	0.938104	0.195122	-0.171691	1.541999	0.099843	-0.182044	0.984079	0.203706	-0.176638	0.930973	0.213950	-0.150423	0.935467	0.223460	-0.140610	0.991900	0.219660	-0.117020	1.315017	0.177912	-0.175828	1.327560	0.178017	-0.173423	1.390922	0.179008	-0.115399	1.388931	0.170853	0.114024	1.512022	0.012523	0.089460	1.453812	0.068688	0.082975	1.505468	0.043745	0.134888	1.463159	0.023647	0.037075	1.527221	-0.003146	0.068185	1.335445	0.007008	-0.138256	1.528940	0.093696	0.080670	1.475527	0.063648
4	0.040000	-0.043895	1.634580	-0.075945	-0.085507	1.402125	-0.151564	-0.166457	1.203020	0.145707	-0.172484	1.197815	0.074001	-0.170240	0.930793	0.169001	-0.121077	0.938286	0.195149	-0.171803	1.542022	0.099386	-0.182241	0.984263	0.203641	-0.176833	0.931180	0.213921	-0.150617	0.935641	0.223467	-0.140780	0.992120	0.219559	-0.117131	1.315202	0.177701	-0.175919	1.327728	0.177748	-0.173467	1.391232	0.178904	-0.115516	1.389067	0.170567	0.113969	1.512052	0.012189	0.089377	1.453899	0.068396	0.082517	1.505584	0.043060	0.134825	1.463197	0.023336	0.036981	1.527209	-0.003561	0.068154	1.335454	0.006792	-0.138336	1.529039	0.093294	0.080601	1.475595	0.063350
5	0.050000	-0.044023	1.634471	-0.076499	-0.085561	1.401932	-0.151897	-0.166582	1.203153	0.145487	-0.172564	1.197892	0.073782	-0.170416	0.930969	0.168992	-0.121278	0.938480	0.195181	-0.171932	1.542050	0.098902	-0.182434	0.984433	0.203582	-0.176983	0.931360	0.213899	-0.150822	0.935836	0.223448	-0.140970	0.992471	0.219237	-0.117245	1.315332	0.177350	-0.176068	1.327879	0.177411	-0.173660	1.391362	0.178507	-0.115718	1.389232	0.170169	0.113862	1.512095	0.011821	0.089270	1.454027	0.068035	0.082455	1.505656	0.042614	0.134756	1.463261	0.022982	0.036872	1.527192	-0.003999	0.068094	1.335456	0.006546	-0.138445	1.529133	0.092840	0.080495	1.475672	0.063000
6	0.060000	-0.044164	1.634353	-0.077078	-0.085635	1.401731	-0.152256	-0.166716	1.203282	0.145247	-0.172646	1.197958	0.073542	-0.170567	0.931151	0.168981	-0.121460	0.938689	0.195220	-0.172081	1.542074	0.098392	-0.182622	0.984617	0.203514	-0.177173	0.931544	0.213880	-0.151059	0.936049	0.223458	-0.141136	0.992666	0.219246	-0.117424	1.315519	0.177054	-0.176271	1.328029	0.177028	-0.173876	1.391522	0.178133	-0.115877	1.389345	0.169773	0.113831	1.512167	0.011479	0.089126	1.454124	0.067648	0.082472	1.505665	0.042287	0.134669	1.463315	0.022636	0.036744	1.527164	-0.004460	0.068009	1.335445	0.006277	-0.138584	1.529220	0.092335	0.080469	1.475816	0.062762
7	0.070000	-0.044311	1.634232	-0.077675	-0.085726	1.401532	-0.152642	-0.166858	1.203407	0.144988	-0.172730	1.198012	0.073283	-0.170690	0.931338	0.168968	-0.121621	0.938909	0.195269	-0.172247	1.542096	0.097856	-0.182804	0.984807	0.203427	-0.177383	0.931745	0.213853	-0.151296	0.936285	0.223449	-0.141367	0.992853	0.219215	-0.117628	1.315714	0.176721	-0.176498	1.328149	0.176654	-0.174098	1.391680	0.177695	-0.116122	1.389609	0.169348	0.113416	1.512142	0.010948	0.088997	1.454243	0.067271	0.082435	1.505655	0.041960	0.134546	1.463380	0.022255	0.036601	1.527127	-0.004939	0.067898	1.335423	0.005985	-0.138754	1.529299	0.091781	0.080159	1.475870	0.062176
8	0.080000	-0.044446	1.634132	-0.078277	-0.085834	1.401368	-0.153061	-0.167007	1.203527	0.144709	-0.172814	1.198054	0.073005	-0.170791	0.931530	0.168951	-0.121766	0.939140	0.195323	-0.172424	1.542138	0.097298	-0.183027	0.985087	0.203413	-0.177550	0.931968	0.213829	-0.151542	0.936409	0.223486	-0.141595	0.993085	0.219221	-0.117829	1.315910	0.176368	-0.176694	1.328312	0.176179	-0.174309	1.391838	0.177120	-0.116337	1.389776	0.168929	0.113249	1.512119	0.010359	0.088950	1.454299	0.066637	0.081822	1.505713	0.041204	0.134364	1.463407	0.021848	0.036451	1.527089	-0.005431	0.067751	1.335396	0.005661	-0.138950	1.529370	0.091181	0.080010	1.475959	0.061683
9	0.090000	-0.044581	1.634027	-0.078895	-0.085951	1.401204	-0.153505	-0.167160	1.203640	0.144413	-0.172899	1.198083	0.072710	-0.170863	0.931725	0.168929	-0.121889	0.939379	0.195383	-0.172617	1.542177	0.096714	-0.183175	0.985280	0.203284	-0.177755	0.932204	0.213808	-0.151709	0.936650	0.223474	-0.141805	0.993285	0.219212	-0.118026	1.316102	0.175986	-0.176891	1.328450	0.175973	-0.174564	1.392020	0.176522	-0.116534	1.389824	0.168522	0.113060	1.512133	0.009850	0.088714	1.454326	0.066245	0.081630	1.505737	0.040694	0.134174	1.463468	0.021433	0.036290	1.527041	-0.005938	0.067582	1.335356	0.005318	-0.139172	1.529432	0.090538	0.079791	1.476012	0.061252
10	0.100000	-0.044690	1.633953	-0.079508	-0.086078	1.401090	-0.153984	-0.167316	1.203747	0.144099	-0.172983	1.198100	0.072397	-0.170915	0.931920	0.168898	-0.121998	0.939624	0.195442	-0.172815	1.542243	0.096108	-0.183281	0.985505	0.203159	-0.177933	0.932485	0.213809	-0.151848	0.936910	0.223455	-0.141988	0.993540	0.219217	-0.118258	1.316264	0.175542	-0.177161	1.328650	0.175150	-0.174854	1.392141	0.175920	-0.116860	1.390059	0.168002	0.112984	1.512173	0.009401	0.088396	1.454272	0.065905	0.081423	1.505784	0.040203	0.133933	1.463464	0.021002	0.036130	1.526998	-0.006449	0.067378	1.335314	0.004943	-0.139416	1.529486	0.089857	0.079596	1.475985	0.060760
11	0.110000	-0.044779	1.633894	-0.080124	-0.086206	1.401004	-0.154493	-0.167474	1.203846	0.143767	-0.173065	1.198106	0.072067	-0.170947	0.932113	0.168854	-0.122091	0.939870	0.195496	-0.173021	1.542322	0.095479	-0.183395	0.985702	0.203016	-0.178094	0.932730	0.213775	-0.151989	0.937203	0.223461	-0.142192	0.993806	0.219232	-0.118536	1.316406	0.175093	-0.177459	1.328732	0.174689	-0.175124	1.392239	0.175299	-0.117221	1.390321	0.167398	0.112987	1.512252	0.009010	0.088188	1.454304	0.065391	0.081222	1.505790	0.039751	0.133750	1.463441	0.020550	0.035970	1.526952	-0.006967	0.067150	1.335264	0.004546	-0.139678	1.529530	0.089143	0.079523	1.475995	0.060379
12	0.120000	-0.044844	1.633852	-0.080739	-0.086332	1.400947	-0.155030	-0.167633	1.203936	0.143416	-0.173146	1.198102	0.071718	-0.170961	0.932304	0.168792	-0.122171	0.940116	0.195538	-0.173231	1.542415	0.094829	-0.183534	0.985923	0.202906	-0.178207	0.932951	0.213701	-0.152116	0.937461	0.223432	-0.142358	0.994056	0.219249	-0.118823	1.316563	0.174651	-0.177762	1.328831	0.174173	-0.175409	1.392359	0.174728	-0.117510	1.390426	0.166892	0.112816	1.512154	0.008602	0.087936	1.454231	0.064947	0.081401	1.505752	0.039565	0.133533	1.463345	0.020147	0.035813	1.526906	-0.007487	0.066900	1.335209	0.004129	-0.139954	1.529564	0.088405	0.079275	1.475928	0.059975
13	0.130000	-0.044870	1.633845	-0.081340	-0.086453	1.400947	-0.155598	-0.167790	1.204017	0.143045	-0.173225	1.198088	0.071348	-0.170968	0.932487	0.168705	-0.122246	0.940355	0.195558	-0.173439	1.542536	0.094161	-0.183709	0.986137	0.202760	-0.178324	0.933158	0.213621	-0.152229	0.937740	0.223409	-0.142570	0.994276	0.219332	-0.119058	1.316725	0.174190	-0.178030	1.328946	0.173606	-0.175761	1.392454	0.174164	-0.117797	1.390453	0.166426	0.112257	1.511810	0.007949	0.087687	1.454131	0.064516	0.081339	1.505639	0.039164	0.133372	1.463174	0.019623	0.035668	1.526867	-0.008003	0.066625	1.335154	0.003687	-0.140240	1.529590	0.087647	0.078894	1.475720	0.059267
14	0.140000	-0.044875	1.633843	-0.081941	-0.086561	1.400959	-0.156186	-0.167945	1.204087	0.142653	-0.173301	1.198066	0.070958	-0.170965	0.932663	0.168586	-0.122313	0.940586	0.195550	-0.173651	1.542659	0.093474	-0.183858	0.986341	0.202582	-0.178417	0.933353	0.213522	-0.152357	0.938019	0.223356	-0.142711	0.994528	0.219248	-0.119333	1.316813	0.173760	-0.178272	1.329063	0.173051	-0.176094	1.392591	0.173497	-0.118108	1.390559	0.165895	0.112225	1.511696	0.007573	0.087452	1.453997	0.064064	0.080688	1.505381	0.038355	0.133135	1.462980	0.019208	0.035528	1.526824	-0.008517	0.066342	1.335091	0.003236	-0.140531	1.529608	0.086877	0.078726	1.475620	0.058894
